<?xml version="1.0" encoding="UTF-8" standalone="no"?>
<!-- Created with Inkscape (http://www.inkscape.org/) -->

<svg
   width="336"
   height="336"
   viewBox="0 0 336 336"
   version="1.1"
   id="svg1"
   inkscape:version="1.4.2 (ebf0e940d0, 2025-05-08)"
   sodipodi:docname="logo.svg"
   inkscape:export-filename="logo.png"
   inkscape:export-xdpi="96"
   inkscape:export-ydpi="96"
   xmlns:inkscape="http://www.inkscape.org/namespaces/inkscape"
   xmlns:sodipodi="http://sodipodi.sourceforge.net/DTD/sodipodi-0.dtd"
   xmlns:xlink="http://www.w3.org/1999/xlink"
   xmlns="http://www.w3.org/2000/svg"
   xmlns:svg="http://www.w3.org/2000/svg">
  <sodipodi:namedview
     id="namedview1"
     pagecolor="#ffffff"
     bordercolor="#000000"
     borderopacity="0.25"
     inkscape:showpageshadow="2"
     inkscape:pageopacity="0.0"
     inkscape:pagecheckerboard="true"
     inkscape:deskcolor="#d1d1d1"
     inkscape:document-units="px"
     showgrid="true"
     inkscape:zoom="1.4289282"
     inkscape:cx="108.82282"
     inkscape:cy="147.66312"
     inkscape:window-width="1920"
     inkscape:window-height="1011"
     inkscape:window-x="0"
     inkscape:window-y="0"
     inkscape:window-maximized="1"
     inkscape:current-layer="layer1">
    <inkscape:grid
       id="grid1"
       units="px"
       originx="0"
       originy="0"
       spacingx="1"
       spacingy="1"
       empcolor="#0099e5"
       empopacity="0.30196078"
       color="#0099e5"
       opacity="0.14901961"
       empspacing="5"
       enabled="true"
       visible="true" />
  </sodipodi:namedview>
  <defs
     id="defs1">
    <linearGradient
       id="linearGradient3"
       inkscape:collect="always">
      <stop
         style="stop-color:#ffffff;stop-opacity:1;"
         offset="0.88999897"
         id="stop6" />
      <stop
         style="stop-color:#c0ff74;stop-opacity:1;"
         offset="0.88999897"
         id="stop7" />
    </linearGradient>
    <linearGradient
       id="linearGradient12"
       inkscape:collect="always">
      <stop
         style="stop-color:#bb2a2a;stop-opacity:1;"
         offset="0.14615385"
         id="stop12" />
      <stop
         style="stop-color:#451a1a;stop-opacity:1;"
         offset="0.8525641"
         id="stop13" />
    </linearGradient>
    <linearGradient
       id="linearGradient10"
       inkscape:collect="always">
      <stop
         style="stop-color:#444444;stop-opacity:1;"
         offset="0"
         id="stop9" />
      <stop
         style="stop-color:#2f2f2f;stop-opacity:1;"
         offset="1"
         id="stop10" />
    </linearGradient>
    <linearGradient
       id="linearGradient1"
       inkscape:collect="always">
      <stop
         style="stop-color:#686868;stop-opacity:1;"
         offset="0"
         id="stop1" />
      <stop
         style="stop-color:#e2e2e2;stop-opacity:1;"
         offset="0.22820516"
         id="stop3" />
      <stop
         style="stop-color:#848484;stop-opacity:1;"
         offset="0.44743592"
         id="stop11" />
      <stop
         style="stop-color:#777777;stop-opacity:1;"
         offset="0.61153847"
         id="stop4" />
      <stop
         style="stop-color:#a1a1a1;stop-opacity:1;"
         offset="0.76025641"
         id="stop5" />
      <stop
         style="stop-color:#616161;stop-opacity:1;"
         offset="1"
         id="stop2" />
    </linearGradient>
    <linearGradient
       inkscape:collect="always"
       xlink:href="#linearGradient1"
       id="linearGradient2"
       x1="18"
       y1="18"
       x2="318"
       y2="318"
       gradientUnits="userSpaceOnUse" />
    <linearGradient
       inkscape:collect="always"
       xlink:href="#linearGradient10"
       id="linearGradient5"
       gradientUnits="userSpaceOnUse"
       x1="168"
       y1="18"
       x2="168"
       y2="318"
       gradientTransform="matrix(0.85333333,0,0,0.85333333,24.640002,24.64)" />
    <linearGradient
       inkscape:collect="always"
       xlink:href="#linearGradient12"
       id="linearGradient13"
       x1="245"
       y1="91"
       x2="91"
       y2="245"
       gradientUnits="userSpaceOnUse"
       gradientTransform="translate(0,-27.25)" />
    <linearGradient
       inkscape:collect="always"
       xlink:href="#linearGradient3"
       id="linearGradient7"
       x1="65.671875"
       y1="257.55372"
       x2="270.32813"
       y2="257.55372"
       gradientUnits="userSpaceOnUse" />
  </defs>
  <g
     inkscape:label="Layer 1"
     inkscape:groupmode="layer"
     id="layer1">
    <rect
       style="opacity:1;fill:#000000;fill-rule:evenodd;stroke-width:0.6;stroke-linejoin:round;-inkscape-stroke:none;fill-opacity:1"
       id="OuterBorder"
       width="322"
       height="322"
       x="7"
       y="7"
       rx="54"
       ry="54" />
    <rect
       style="opacity:1;fill:url(#linearGradient2);fill-rule:evenodd;stroke-width:0.6;stroke-linejoin:round;-inkscape-stroke:none"
       id="InnerBorder"
       width="300"
       height="300"
       x="18"
       y="18"
       rx="43"
       ry="43" />
    <rect
       style="opacity:1;fill:url(#linearGradient5);fill-rule:evenodd;stroke-width:0.512;stroke-linejoin:round;-inkscape-stroke:none"
       id="Background"
       width="256"
       height="256"
       x="40"
       y="40"
       rx="21"
       ry="21" />
    <rect
       style="mix-blend-mode:color-dodge;fill:#616161;fill-opacity:1;fill-rule:evenodd;stroke-width:0.600903;stroke-linejoin:round;-inkscape-stroke:none"
       id="TransparentRect1"
       width="102.189"
       height="112.87572"
       x="40.780338"
       y="111.09277"
       rx="4.0875559"
       ry="3.9261119"
       transform="matrix(0.96739429,-0.25327511,0.17759197,0.98410421,0,0)" />
    <rect
       style="opacity:1;mix-blend-mode:color-dodge;fill:#616161;fill-opacity:1;fill-rule:evenodd;stroke-width:0.600903;stroke-linejoin:round;-inkscape-stroke:none"
       id="TransparentRect2"
       width="102.189"
       height="112.87572"
       x="138.88167"
       y="132.68639"
       rx="4.0875559"
       ry="3.9261119"
       transform="matrix(0.96739429,-0.25327511,0.17759197,0.98410421,0,0)" />
    <path
       id="NoSign"
       style="opacity:1;fill:url(#linearGradient13);fill-rule:evenodd;stroke:#270505;stroke-width:7.5;stroke-linejoin:round;stroke-dasharray:none;stroke-opacity:1;paint-order:stroke fill markers"
       d="m 168,63.75 a 77,77 0 0 0 -77,77 77,77 0 0 0 77,77 77,77 0 0 0 77,-77 77,77 0 0 0 -77,-77 z m 0,14 a 63,63 0 0 1 39.32031,13.7793 L 118.7793,180.07031 A 63,63 0 0 1 105,140.75 a 63,63 0 0 1 63,-63 z m 49.2207,23.67969 A 63,63 0 0 1 231,140.75 a 63,63 0 0 1 -63,63 63,63 0 0 1 -39.32031,-13.7793 z" />
    <path
       id="Text"
       d="M 104.70117 244.93555 C 101.0425 244.93555 98.205452 246.1302 96.189453 248.51953 C 94.322788 250.75953 93.388672 253.74519 93.388672 257.47852 C 93.388672 261.24919 94.322788 264.27389 96.189453 266.47656 C 98.168118 268.82856 101.00517 270.02344 104.70117 270.02344 C 108.39716 270.02344 111.30973 268.86567 113.40039 266.51367 C 115.37906 264.27367 116.38672 261.28606 116.38672 257.55273 C 116.38672 255.9474 116.19972 254.4551 115.78906 253.14844 L 115.67773 252.77539 C 114.10973 247.54872 110.45049 244.93555 104.70117 244.93555 z M 137.5918 244.93555 C 133.93314 244.93555 131.09608 246.1302 129.08008 248.51953 C 127.21341 250.75953 126.2793 253.74519 126.2793 257.47852 C 126.2793 261.24919 127.21341 264.27389 129.08008 266.47656 C 131.05874 268.82856 133.8958 270.02344 137.5918 270.02344 C 141.2878 270.02344 144.20035 268.86567 146.29102 266.51367 C 148.26968 264.27367 149.27734 261.28606 149.27734 257.55273 C 149.27734 255.9474 149.09036 254.4551 148.67969 253.14844 L 148.56836 252.77539 C 147.00036 247.54872 143.34113 244.93555 137.5918 244.93555 z M 162.08203 244.93555 C 158.42337 244.93555 155.58631 246.1302 153.57031 248.51953 C 151.70365 250.75953 150.77148 253.74519 150.77148 257.47852 C 150.77148 261.24919 151.70365 264.27389 153.57031 266.47656 C 155.54898 268.82856 158.38604 270.02344 162.08203 270.02344 C 165.77803 270.02344 168.69059 268.86567 170.78125 266.51367 C 172.75992 264.27367 173.76758 261.28606 173.76758 257.55273 C 173.76758 255.9474 173.58058 254.4551 173.16992 253.14844 L 173.05859 252.77539 C 171.49059 247.54872 167.83136 244.93555 162.08203 244.93555 z M 186.57422 244.93555 C 182.91556 244.93555 180.07655 246.1302 178.06055 248.51953 C 176.19388 250.75953 175.26172 253.74519 175.26172 257.47852 C 175.26172 261.24919 176.19388 264.27389 178.06055 266.47656 C 180.03921 268.82856 182.87822 270.02344 186.57422 270.02344 C 190.27022 270.02344 193.18082 268.86567 195.27148 266.51367 C 197.25015 264.27367 198.25781 261.28606 198.25781 257.55273 C 198.25781 255.9474 198.07278 254.4551 197.66211 253.14844 L 197.54883 252.77539 C 195.98083 247.54872 192.32355 244.93555 186.57422 244.93555 z M 211.06445 244.93555 C 207.40579 244.93555 204.56873 246.1302 202.55273 248.51953 C 200.68607 250.75953 199.75195 253.74519 199.75195 257.47852 C 199.75195 261.24919 200.68607 264.27389 202.55273 266.47656 C 204.5314 268.82856 207.36846 270.02344 211.06445 270.02344 C 214.76045 270.02344 217.67106 268.86567 219.76172 266.51367 C 221.74039 264.27367 222.75 261.28606 222.75 257.55273 C 222.75 255.9474 222.563 254.4551 222.15234 253.14844 L 222.03906 252.77539 C 220.47106 247.54872 216.81378 244.93555 211.06445 244.93555 z M 235.55469 244.93555 C 231.89603 244.93555 229.05897 246.1302 227.04297 248.51953 C 225.1763 250.75953 224.24219 253.74519 224.24219 257.47852 C 224.24219 261.24919 225.1763 264.27389 227.04297 266.47656 C 229.02163 268.82856 231.85869 270.02344 235.55469 270.02344 C 239.25069 270.02344 242.16325 268.86567 244.25391 266.51367 C 246.23258 264.27367 247.24023 261.28606 247.24023 257.55273 C 247.24023 255.9474 247.05325 254.4551 246.64258 253.14844 L 246.53125 252.77539 C 244.96325 247.54872 241.30402 244.93555 235.55469 244.93555 z M 81.292969 245.04688 C 78.642304 244.93488 76.141509 245.34619 73.714844 246.24219 C 72.258846 246.80219 71.027531 247.51047 70.019531 248.36914 C 69.608865 248.70514 69.421875 249.22861 69.421875 249.86328 C 69.421875 250.19928 69.45831 250.57175 69.570312 250.98242 C 70.130312 252.51308 70.802386 253.29664 71.511719 253.33398 C 71.997051 253.33398 72.669126 253.11011 73.453125 252.66211 C 74.535791 252.02744 75.655168 251.72874 76.8125 251.69141 C 77.745833 251.72871 78.23175 252.17799 78.34375 253.11133 C 78.45575 254.64199 77.859624 255.35005 76.515625 255.27539 C 75.208959 255.20069 74.199343 255.276 73.527344 255.5 C 72.892678 255.76133 72.595703 256.43341 72.595703 257.44141 C 72.595703 258.41207 72.819355 259.04703 73.304688 259.3457 C 73.864688 259.64436 74.947626 259.7932 76.515625 259.75586 C 77.896957 259.71856 78.493083 260.42922 78.34375 261.81055 C 78.26908 262.81855 77.709172 263.30296 76.701172 263.26562 C 75.618507 263.22832 74.535791 262.92958 73.453125 262.29492 C 72.669126 261.84692 71.997051 261.62305 71.511719 261.62305 C 70.802386 261.66035 70.130311 262.44394 69.570312 263.97461 C 69.458313 264.38527 69.421875 264.7597 69.421875 265.0957 C 69.421875 265.73036 69.608865 266.25189 70.019531 266.58789 C 71.027531 267.44655 72.258846 268.1568 73.714844 268.7168 C 76.141509 269.61279 78.642304 270.02216 81.292969 269.91016 C 88.348963 269.68616 91.85787 267.03609 91.783203 261.99609 C 91.745873 260.09209 90.887478 258.59852 89.132812 257.47852 C 90.887478 256.35852 91.74587 254.86494 91.783203 252.96094 C 91.857873 247.92095 88.348963 245.27087 81.292969 245.04688 z M 260.83008 245.49414 C 258.96341 245.49414 257.61798 245.56945 256.83398 245.71875 C 256.34865 245.83075 255.97618 245.94247 255.71484 246.0918 C 254.14685 246.9878 252.31722 248.22106 250.22656 249.78906 C 249.21856 250.53573 248.73242 251.2438 248.73242 251.95312 C 248.73242 252.62512 248.99491 253.29675 249.51758 253.96875 C 250.04024 254.60342 250.63682 254.93945 251.27148 254.93945 C 251.53281 254.93945 251.98056 254.75397 252.61523 254.41797 C 253.2499 254.08197 253.69811 253.89453 253.88477 253.89453 C 253.99677 253.89453 254.1087 253.93288 254.2207 254.04492 C 254.37004 254.23158 254.44531 254.93987 254.44531 256.17188 L 254.44531 261.32422 C 254.44531 263.37755 254.48194 264.79564 254.55664 265.6543 C 254.66864 267.07297 254.89274 267.93181 255.19141 268.23047 C 256.12474 269.1638 257.80576 269.68728 260.23242 269.72461 C 260.64309 269.72461 261.1275 269.7248 261.6875 269.6875 C 263.3675 269.5755 264.48838 269.27635 265.12305 268.79102 C 265.83238 268.19369 266.20485 267.07408 266.24219 265.46875 L 266.50391 250.87109 C 266.50391 250.68442 266.50372 250.34906 266.54102 249.78906 C 266.57832 249.34106 266.57812 248.96641 266.57812 248.70508 C 266.54082 246.57708 265.42141 245.49414 263.21875 245.49414 L 260.83008 245.49414 z M 104.47656 251.6543 C 105.74589 251.6916 106.64336 252.77457 107.16602 254.86523 C 107.53936 256.32123 107.68795 257.81459 107.61328 259.41992 C 107.50128 261.69725 106.82943 262.96697 105.63477 263.26562 C 105.14943 263.34033 104.66306 263.19188 104.17773 262.78125 C 102.7964 261.62392 102.125 259.60753 102.125 256.6582 C 102.125 256.24753 102.12481 255.83667 102.16211 255.38867 C 102.31144 252.85 103.09522 251.61696 104.47656 251.6543 z M 137.36719 251.6543 C 138.63652 251.6916 139.53397 252.77457 140.05664 254.86523 C 140.42997 256.32123 140.57857 257.81459 140.50391 259.41992 C 140.39191 261.69725 139.72006 262.96697 138.52539 263.26562 C 138.04006 263.34033 137.55565 263.19188 137.07031 262.78125 C 135.68898 261.62392 135.01563 259.60753 135.01562 256.6582 C 135.01562 256.24753 135.01543 255.83667 135.05273 255.38867 C 135.20206 252.85 135.98586 251.61696 137.36719 251.6543 z M 161.85938 251.6543 C 163.12871 251.6916 164.02422 252.77457 164.54688 254.86523 C 164.92022 256.32123 165.06881 257.81459 164.99414 259.41992 C 164.88214 261.69725 164.21028 262.96697 163.01562 263.26562 C 162.53028 263.34033 162.04588 263.19188 161.56055 262.78125 C 160.17922 261.62392 159.50586 259.60753 159.50586 256.6582 C 159.50586 256.24753 159.50762 255.83667 159.54492 255.38867 C 159.69425 252.85 160.47805 251.61696 161.85938 251.6543 z M 186.34961 251.6543 C 187.61894 251.6916 188.51444 252.77457 189.03711 254.86523 C 189.41044 256.32123 189.55904 257.81459 189.48438 259.41992 C 189.37238 261.69725 188.70053 262.96697 187.50586 263.26562 C 187.02053 263.34033 186.53612 263.19188 186.05078 262.78125 C 184.66945 261.62392 183.99805 259.60753 183.99805 256.6582 C 183.99805 256.24753 183.99786 255.83667 184.03516 255.38867 C 184.18449 252.85 184.96828 251.61696 186.34961 251.6543 z M 210.83984 251.6543 C 212.10917 251.6916 213.00468 252.77457 213.52734 254.86523 C 213.90068 256.32123 214.05123 257.81459 213.97656 259.41992 C 213.86456 261.69725 213.19271 262.96697 211.99805 263.26562 C 211.51271 263.34033 211.02635 263.19188 210.54102 262.78125 C 209.15969 261.62392 208.48828 259.60753 208.48828 256.6582 C 208.48828 256.24753 208.48809 255.83667 208.52539 255.38867 C 208.67472 252.85 209.4585 251.61696 210.83984 251.6543 z M 235.33008 251.6543 C 236.59941 251.6916 237.49686 252.77457 238.01953 254.86523 C 238.39286 256.32123 238.54147 257.81459 238.4668 259.41992 C 238.3548 261.69725 237.68295 262.96697 236.48828 263.26562 C 236.00295 263.34033 235.51658 263.19188 235.03125 262.78125 C 233.64991 261.62392 232.97852 259.60753 232.97852 256.6582 C 232.97852 256.24753 232.97833 255.83667 233.01562 255.38867 C 233.16495 252.85 233.94875 251.61696 235.33008 251.6543 z M 121.42578 263.22852 C 119.07378 263.22852 117.88063 264.42317 117.91797 266.8125 C 117.95527 269.0525 119.11111 270.17188 121.42578 270.17188 C 123.66578 270.17188 124.78711 269.0525 124.78711 266.8125 C 124.78711 264.42317 123.66578 263.22852 121.42578 263.22852 z "
       style="font-size:37.3333px;line-height:1.15;font-family:Pusab;-inkscape-font-specification:Pusab;text-align:center;text-anchor:middle;fill:url(#linearGradient7);fill-rule:evenodd;stroke:#121212;stroke-width:7.5;stroke-linejoin:round;paint-order:stroke fill markers" />
  </g>
</svg>
